G75*
G70*
%OFA0B0*%
%FSLAX24Y24*%
%IPPOS*%
%LPD*%
%AMOC8*
5,1,8,0,0,1.08239X$1,22.5*
%
%ADD10C,0.0050*%
%ADD11C,0.0000*%
%ADD12C,0.0055*%
%ADD13C,0.0260*%
%ADD14C,0.0160*%
%ADD15C,0.0220*%
%ADD16C,0.0340*%
%ADD17C,0.0200*%
%ADD18C,0.0280*%
%ADD19C,0.0140*%
D10*
X000414Y000161D02*
X009936Y000161D01*
X009962Y000163D01*
X009988Y000168D01*
X010013Y000176D01*
X010036Y000188D01*
X010058Y000202D01*
X010077Y000220D01*
X010095Y000239D01*
X010109Y000261D01*
X010121Y000284D01*
X010129Y000309D01*
X010134Y000335D01*
X010136Y000361D01*
X010136Y001930D01*
X010134Y001956D01*
X010129Y001982D01*
X010121Y002007D01*
X010109Y002030D01*
X010095Y002052D01*
X010077Y002071D01*
X010058Y002089D01*
X010036Y002103D01*
X010013Y002115D01*
X009988Y002123D01*
X009962Y002128D01*
X009936Y002130D01*
X000414Y002130D01*
X000388Y002128D01*
X000362Y002123D01*
X000337Y002115D01*
X000314Y002103D01*
X000292Y002089D01*
X000273Y002071D01*
X000255Y002052D01*
X000241Y002030D01*
X000229Y002007D01*
X000221Y001982D01*
X000216Y001956D01*
X000214Y001930D01*
X000214Y000361D01*
X000216Y000335D01*
X000221Y000309D01*
X000229Y000284D01*
X000241Y000261D01*
X000255Y000239D01*
X000273Y000220D01*
X000292Y000202D01*
X000314Y000188D01*
X000337Y000176D01*
X000362Y000168D01*
X000388Y000163D01*
X000414Y000161D01*
D11*
X000569Y000712D02*
X000571Y000739D01*
X000577Y000766D01*
X000586Y000792D01*
X000599Y000816D01*
X000615Y000839D01*
X000634Y000858D01*
X000656Y000875D01*
X000680Y000889D01*
X000705Y000899D01*
X000732Y000906D01*
X000759Y000909D01*
X000787Y000908D01*
X000814Y000903D01*
X000840Y000895D01*
X000864Y000883D01*
X000887Y000867D01*
X000908Y000849D01*
X000925Y000828D01*
X000940Y000804D01*
X000951Y000779D01*
X000959Y000753D01*
X000963Y000726D01*
X000963Y000698D01*
X000959Y000671D01*
X000951Y000645D01*
X000940Y000620D01*
X000925Y000596D01*
X000908Y000575D01*
X000887Y000557D01*
X000865Y000541D01*
X000840Y000529D01*
X000814Y000521D01*
X000787Y000516D01*
X000759Y000515D01*
X000732Y000518D01*
X000705Y000525D01*
X000680Y000535D01*
X000656Y000549D01*
X000634Y000566D01*
X000615Y000585D01*
X000599Y000608D01*
X000586Y000632D01*
X000577Y000658D01*
X000571Y000685D01*
X000569Y000712D01*
X009387Y000712D02*
X009389Y000739D01*
X009395Y000766D01*
X009404Y000792D01*
X009417Y000816D01*
X009433Y000839D01*
X009452Y000858D01*
X009474Y000875D01*
X009498Y000889D01*
X009523Y000899D01*
X009550Y000906D01*
X009577Y000909D01*
X009605Y000908D01*
X009632Y000903D01*
X009658Y000895D01*
X009682Y000883D01*
X009705Y000867D01*
X009726Y000849D01*
X009743Y000828D01*
X009758Y000804D01*
X009769Y000779D01*
X009777Y000753D01*
X009781Y000726D01*
X009781Y000698D01*
X009777Y000671D01*
X009769Y000645D01*
X009758Y000620D01*
X009743Y000596D01*
X009726Y000575D01*
X009705Y000557D01*
X009683Y000541D01*
X009658Y000529D01*
X009632Y000521D01*
X009605Y000516D01*
X009577Y000515D01*
X009550Y000518D01*
X009523Y000525D01*
X009498Y000535D01*
X009474Y000549D01*
X009452Y000566D01*
X009433Y000585D01*
X009417Y000608D01*
X009404Y000632D01*
X009395Y000658D01*
X009389Y000685D01*
X009387Y000712D01*
D12*
X005655Y000215D02*
X005655Y001499D01*
X005655Y000215D02*
X004607Y000215D01*
X004607Y001499D01*
X005655Y001499D01*
X005655Y000269D02*
X004607Y000269D01*
X004607Y000323D02*
X005655Y000323D01*
X005655Y000377D02*
X004607Y000377D01*
X004607Y000431D02*
X005655Y000431D01*
X005655Y000485D02*
X004607Y000485D01*
X004607Y000539D02*
X005655Y000539D01*
X005655Y000593D02*
X004607Y000593D01*
X004607Y000647D02*
X005655Y000647D01*
X005655Y000701D02*
X004607Y000701D01*
X004607Y000755D02*
X005655Y000755D01*
X005655Y000809D02*
X004607Y000809D01*
X004607Y000863D02*
X005655Y000863D01*
X005655Y000917D02*
X004607Y000917D01*
X004607Y000971D02*
X005655Y000971D01*
X005655Y001025D02*
X004607Y001025D01*
X004607Y001079D02*
X005655Y001079D01*
X005655Y001133D02*
X004607Y001133D01*
X004607Y001187D02*
X005655Y001187D01*
X005655Y001241D02*
X004607Y001241D01*
X004607Y001295D02*
X005655Y001295D01*
X005655Y001349D02*
X004607Y001349D01*
X004607Y001403D02*
X005655Y001403D01*
X005655Y001457D02*
X004607Y001457D01*
X003515Y001499D02*
X003515Y000215D01*
X002467Y000215D01*
X002467Y001499D01*
X003515Y001499D01*
X003515Y000269D02*
X002467Y000269D01*
X002467Y000323D02*
X003515Y000323D01*
X003515Y000377D02*
X002467Y000377D01*
X002467Y000431D02*
X003515Y000431D01*
X003515Y000485D02*
X002467Y000485D01*
X002467Y000539D02*
X003515Y000539D01*
X003515Y000593D02*
X002467Y000593D01*
X002467Y000647D02*
X003515Y000647D01*
X003515Y000701D02*
X002467Y000701D01*
X002467Y000755D02*
X003515Y000755D01*
X003515Y000809D02*
X002467Y000809D01*
X002467Y000863D02*
X003515Y000863D01*
X003515Y000917D02*
X002467Y000917D01*
X002467Y000971D02*
X003515Y000971D01*
X003515Y001025D02*
X002467Y001025D01*
X002467Y001079D02*
X003515Y001079D01*
X003515Y001133D02*
X002467Y001133D01*
X002467Y001187D02*
X003515Y001187D01*
X003515Y001241D02*
X002467Y001241D01*
X002467Y001295D02*
X003515Y001295D01*
X003515Y001349D02*
X002467Y001349D01*
X002467Y001403D02*
X003515Y001403D01*
X003515Y001457D02*
X002467Y001457D01*
D13*
X005951Y001537D03*
X005951Y001262D03*
X005951Y000987D03*
D14*
X005469Y001262D02*
X005210Y001004D01*
X005131Y000857D01*
D15*
X005951Y000987D02*
X005951Y001537D01*
X005951Y001262D02*
X005469Y001262D01*
X002991Y000612D02*
X001911Y000612D01*
D16*
X001911Y000612D03*
D17*
X002991Y000612D02*
X002991Y000857D01*
X002964Y001178D01*
D18*
X004499Y001800D03*
X006500Y000700D03*
D19*
X006500Y001600D01*
X006498Y001626D01*
X006493Y001652D01*
X006485Y001677D01*
X006473Y001700D01*
X006459Y001722D01*
X006441Y001741D01*
X006422Y001759D01*
X006400Y001773D01*
X006377Y001785D01*
X006352Y001793D01*
X006326Y001798D01*
X006300Y001800D01*
X004499Y001800D01*
M02*
