G75*
G70*
%OFA0B0*%
%FSLAX24Y24*%
%IPPOS*%
%LPD*%
%AMOC8*
5,1,8,0,0,1.08239X$1,22.5*
%
%ADD10C,0.0050*%
%ADD11C,0.0000*%
%ADD12R,0.0220X0.0197*%
%ADD13C,0.0108*%
%ADD14C,0.0098*%
%ADD15C,0.0285*%
%ADD16C,0.0260*%
%ADD17C,0.0220*%
%ADD18C,0.0180*%
%ADD19C,0.0140*%
%ADD20C,0.0340*%
%ADD21C,0.0200*%
%ADD22C,0.0160*%
%ADD23C,0.0280*%
%ADD24C,0.0100*%
%ADD25C,0.0215*%
D10*
X000414Y000161D02*
X009936Y000161D01*
X009962Y000163D01*
X009988Y000168D01*
X010013Y000176D01*
X010036Y000188D01*
X010058Y000202D01*
X010077Y000220D01*
X010095Y000239D01*
X010109Y000261D01*
X010121Y000284D01*
X010129Y000309D01*
X010134Y000335D01*
X010136Y000361D01*
X010136Y001930D01*
X010134Y001956D01*
X010129Y001982D01*
X010121Y002007D01*
X010109Y002030D01*
X010095Y002052D01*
X010077Y002071D01*
X010058Y002089D01*
X010036Y002103D01*
X010013Y002115D01*
X009988Y002123D01*
X009962Y002128D01*
X009936Y002130D01*
X000414Y002130D01*
X000388Y002128D01*
X000362Y002123D01*
X000337Y002115D01*
X000314Y002103D01*
X000292Y002089D01*
X000273Y002071D01*
X000255Y002052D01*
X000241Y002030D01*
X000229Y002007D01*
X000221Y001982D01*
X000216Y001956D01*
X000214Y001930D01*
X000214Y000361D01*
X000216Y000335D01*
X000221Y000309D01*
X000229Y000284D01*
X000241Y000261D01*
X000255Y000239D01*
X000273Y000220D01*
X000292Y000202D01*
X000314Y000188D01*
X000337Y000176D01*
X000362Y000168D01*
X000388Y000163D01*
X000414Y000161D01*
D11*
X000569Y000712D02*
X000571Y000739D01*
X000577Y000766D01*
X000586Y000792D01*
X000599Y000816D01*
X000615Y000839D01*
X000634Y000858D01*
X000656Y000875D01*
X000680Y000889D01*
X000705Y000899D01*
X000732Y000906D01*
X000759Y000909D01*
X000787Y000908D01*
X000814Y000903D01*
X000840Y000895D01*
X000864Y000883D01*
X000887Y000867D01*
X000908Y000849D01*
X000925Y000828D01*
X000940Y000804D01*
X000951Y000779D01*
X000959Y000753D01*
X000963Y000726D01*
X000963Y000698D01*
X000959Y000671D01*
X000951Y000645D01*
X000940Y000620D01*
X000925Y000596D01*
X000908Y000575D01*
X000887Y000557D01*
X000865Y000541D01*
X000840Y000529D01*
X000814Y000521D01*
X000787Y000516D01*
X000759Y000515D01*
X000732Y000518D01*
X000705Y000525D01*
X000680Y000535D01*
X000656Y000549D01*
X000634Y000566D01*
X000615Y000585D01*
X000599Y000608D01*
X000586Y000632D01*
X000577Y000658D01*
X000571Y000685D01*
X000569Y000712D01*
X009387Y000712D02*
X009389Y000739D01*
X009395Y000766D01*
X009404Y000792D01*
X009417Y000816D01*
X009433Y000839D01*
X009452Y000858D01*
X009474Y000875D01*
X009498Y000889D01*
X009523Y000899D01*
X009550Y000906D01*
X009577Y000909D01*
X009605Y000908D01*
X009632Y000903D01*
X009658Y000895D01*
X009682Y000883D01*
X009705Y000867D01*
X009726Y000849D01*
X009743Y000828D01*
X009758Y000804D01*
X009769Y000779D01*
X009777Y000753D01*
X009781Y000726D01*
X009781Y000698D01*
X009777Y000671D01*
X009769Y000645D01*
X009758Y000620D01*
X009743Y000596D01*
X009726Y000575D01*
X009705Y000557D01*
X009683Y000541D01*
X009658Y000529D01*
X009632Y000521D01*
X009605Y000516D01*
X009577Y000515D01*
X009550Y000518D01*
X009523Y000525D01*
X009498Y000535D01*
X009474Y000549D01*
X009452Y000566D01*
X009433Y000585D01*
X009417Y000608D01*
X009404Y000632D01*
X009395Y000658D01*
X009389Y000685D01*
X009387Y000712D01*
D12*
X005847Y000500D03*
X005400Y000500D03*
X004983Y000500D03*
X004537Y000500D03*
X004123Y000500D03*
X003677Y000500D03*
D13*
X005621Y001048D02*
X005621Y001156D01*
X005621Y001048D02*
X005415Y001048D01*
X005415Y001156D01*
X005621Y001156D01*
X005621Y001155D02*
X005415Y001155D01*
X006486Y001156D02*
X006486Y001048D01*
X006280Y001048D01*
X006280Y001156D01*
X006486Y001156D01*
X006486Y001155D02*
X006280Y001155D01*
X006486Y001422D02*
X006486Y001530D01*
X006486Y001422D02*
X006280Y001422D01*
X006280Y001530D01*
X006486Y001530D01*
X006486Y001529D02*
X006280Y001529D01*
X005621Y001530D02*
X005621Y001422D01*
X005415Y001422D01*
X005415Y001530D01*
X005621Y001530D01*
X005621Y001529D02*
X005415Y001529D01*
X005064Y001530D02*
X005064Y001422D01*
X004858Y001422D01*
X004858Y001530D01*
X005064Y001530D01*
X005064Y001529D02*
X004858Y001529D01*
X004160Y001530D02*
X004160Y001422D01*
X003954Y001422D01*
X003954Y001530D01*
X004160Y001530D01*
X004160Y001529D02*
X003954Y001529D01*
X004160Y001796D02*
X004160Y001904D01*
X004160Y001796D02*
X003954Y001796D01*
X003954Y001904D01*
X004160Y001904D01*
X004160Y001903D02*
X003954Y001903D01*
X005064Y001904D02*
X005064Y001796D01*
X004858Y001796D01*
X004858Y001904D01*
X005064Y001904D01*
X005064Y001903D02*
X004858Y001903D01*
X005621Y001904D02*
X005621Y001796D01*
X005415Y001796D01*
X005415Y001904D01*
X005621Y001904D01*
X005621Y001903D02*
X005415Y001903D01*
X006486Y001904D02*
X006486Y001796D01*
X006280Y001796D01*
X006280Y001904D01*
X006486Y001904D01*
X006486Y001903D02*
X006280Y001903D01*
D14*
X004165Y001161D02*
X004165Y001063D01*
X003949Y001063D01*
X003949Y001161D01*
X004165Y001161D01*
X004165Y001160D02*
X003949Y001160D01*
X005070Y001161D02*
X005070Y001043D01*
X004972Y001043D01*
X004972Y001161D01*
X005070Y001161D01*
X005070Y001140D02*
X004972Y001140D01*
D15*
X002243Y000829D02*
X002243Y001687D01*
X003139Y001687D01*
X003139Y000829D01*
X002243Y000829D01*
X002243Y001113D02*
X003139Y001113D01*
X003139Y001397D02*
X002243Y001397D01*
X002243Y001681D02*
X003139Y001681D01*
X007161Y001687D02*
X007161Y000829D01*
X007161Y001687D02*
X008057Y001687D01*
X008057Y000829D01*
X007161Y000829D01*
X007161Y001113D02*
X008057Y001113D01*
X008057Y001397D02*
X007161Y001397D01*
X007161Y001681D02*
X008057Y001681D01*
D16*
X005951Y001537D03*
X005951Y001262D03*
X005951Y000987D03*
D17*
X005951Y001262D02*
X005951Y000604D01*
X005951Y001262D02*
X005951Y001519D01*
X005951Y001745D01*
X006057Y001850D01*
X006383Y001850D01*
X002275Y000811D02*
X002076Y000612D01*
X001911Y000612D01*
X001972Y000612D01*
D18*
X005847Y000500D02*
X005951Y000604D01*
D19*
X006500Y000700D02*
X006500Y001055D01*
X006383Y001102D01*
X005944Y001512D02*
X005951Y001519D01*
X005944Y001512D02*
X005951Y001537D01*
X005518Y001850D02*
X004961Y001850D01*
X004499Y001800D02*
X004499Y000999D01*
X004430Y001110D01*
X004360Y001110D01*
X004240Y001110D01*
X004057Y001112D01*
X003847Y001437D02*
X003819Y001436D01*
X003792Y001430D01*
X003766Y001421D01*
X003742Y001409D01*
X003720Y001393D01*
X003700Y001374D01*
X003683Y001353D01*
X003669Y001329D01*
X003659Y001303D01*
X003653Y001277D01*
X003650Y001250D01*
X003650Y000925D01*
X003650Y000926D02*
X003653Y000904D01*
X003660Y000884D01*
X003670Y000864D01*
X003683Y000847D01*
X003699Y000832D01*
X003716Y000819D01*
X003736Y000810D01*
X003756Y000803D01*
X003778Y000800D01*
X003799Y000801D01*
X003800Y000800D02*
X003923Y000800D01*
X002991Y000961D02*
X002991Y001205D01*
X002691Y001258D01*
X002938Y001056D02*
X003444Y000500D01*
X003677Y000500D01*
X003923Y000800D02*
X003953Y000792D01*
X003981Y000781D01*
X004008Y000766D01*
X004033Y000748D01*
X004056Y000727D01*
X004076Y000704D01*
X004093Y000678D01*
X004107Y000651D01*
X004118Y000622D01*
X004125Y000592D01*
X004128Y000561D01*
X004127Y000530D01*
X004123Y000500D01*
X004537Y000500D01*
X004018Y001437D02*
X003846Y001437D01*
X004018Y001437D02*
X004057Y001476D01*
D20*
X001911Y000612D03*
D21*
X002938Y001025D02*
X002938Y001056D01*
X002938Y001178D01*
X002691Y001258D01*
D22*
X002938Y001178D02*
X002275Y001178D01*
X002275Y000811D01*
X005109Y001102D02*
X005518Y001102D01*
X007175Y000944D02*
X007412Y001181D01*
X007609Y001258D01*
X007207Y001102D01*
D23*
X006500Y000700D03*
X004499Y001800D03*
D24*
X004890Y001476D02*
X004725Y001311D01*
X004725Y001011D01*
X004961Y000775D01*
X005190Y000775D01*
X005213Y000773D01*
X005236Y000768D01*
X005258Y000759D01*
X005278Y000746D01*
X005296Y000731D01*
X005311Y000713D01*
X005324Y000693D01*
X005333Y000671D01*
X005338Y000648D01*
X005340Y000625D01*
X005340Y000505D01*
X005400Y000500D01*
X005013Y000457D02*
X004983Y000500D01*
X005013Y000457D02*
X004360Y001110D01*
X005021Y001102D02*
X005109Y001102D01*
X004961Y001476D02*
X004890Y001476D01*
D25*
X006383Y001102D02*
X007207Y001102D01*
M02*
