G75*
G70*
%OFA0B0*%
%FSLAX24Y24*%
%IPPOS*%
%LPD*%
%AMOC8*
5,1,8,0,0,1.08239X$1,22.5*
%
%ADD10C,0.0050*%
%ADD11C,0.0000*%
%ADD12R,0.0250X0.0100*%
%ADD13R,0.0220X0.0197*%
%ADD14C,0.0108*%
%ADD15C,0.0098*%
D10*
X000414Y000161D02*
X009936Y000161D01*
X009962Y000163D01*
X009988Y000168D01*
X010013Y000176D01*
X010036Y000188D01*
X010058Y000202D01*
X010077Y000220D01*
X010095Y000239D01*
X010109Y000261D01*
X010121Y000284D01*
X010129Y000309D01*
X010134Y000335D01*
X010136Y000361D01*
X010136Y001930D01*
X010134Y001956D01*
X010129Y001982D01*
X010121Y002007D01*
X010109Y002030D01*
X010095Y002052D01*
X010077Y002071D01*
X010058Y002089D01*
X010036Y002103D01*
X010013Y002115D01*
X009988Y002123D01*
X009962Y002128D01*
X009936Y002130D01*
X000414Y002130D01*
X000388Y002128D01*
X000362Y002123D01*
X000337Y002115D01*
X000314Y002103D01*
X000292Y002089D01*
X000273Y002071D01*
X000255Y002052D01*
X000241Y002030D01*
X000229Y002007D01*
X000221Y001982D01*
X000216Y001956D01*
X000214Y001930D01*
X000214Y000361D01*
X000216Y000335D01*
X000221Y000309D01*
X000229Y000284D01*
X000241Y000261D01*
X000255Y000239D01*
X000273Y000220D01*
X000292Y000202D01*
X000314Y000188D01*
X000337Y000176D01*
X000362Y000168D01*
X000388Y000163D01*
X000414Y000161D01*
D11*
X000569Y000712D02*
X000571Y000739D01*
X000577Y000766D01*
X000586Y000792D01*
X000599Y000816D01*
X000615Y000839D01*
X000634Y000858D01*
X000656Y000875D01*
X000680Y000889D01*
X000705Y000899D01*
X000732Y000906D01*
X000759Y000909D01*
X000787Y000908D01*
X000814Y000903D01*
X000840Y000895D01*
X000864Y000883D01*
X000887Y000867D01*
X000908Y000849D01*
X000925Y000828D01*
X000940Y000804D01*
X000951Y000779D01*
X000959Y000753D01*
X000963Y000726D01*
X000963Y000698D01*
X000959Y000671D01*
X000951Y000645D01*
X000940Y000620D01*
X000925Y000596D01*
X000908Y000575D01*
X000887Y000557D01*
X000865Y000541D01*
X000840Y000529D01*
X000814Y000521D01*
X000787Y000516D01*
X000759Y000515D01*
X000732Y000518D01*
X000705Y000525D01*
X000680Y000535D01*
X000656Y000549D01*
X000634Y000566D01*
X000615Y000585D01*
X000599Y000608D01*
X000586Y000632D01*
X000577Y000658D01*
X000571Y000685D01*
X000569Y000712D01*
X009387Y000712D02*
X009389Y000739D01*
X009395Y000766D01*
X009404Y000792D01*
X009417Y000816D01*
X009433Y000839D01*
X009452Y000858D01*
X009474Y000875D01*
X009498Y000889D01*
X009523Y000899D01*
X009550Y000906D01*
X009577Y000909D01*
X009605Y000908D01*
X009632Y000903D01*
X009658Y000895D01*
X009682Y000883D01*
X009705Y000867D01*
X009726Y000849D01*
X009743Y000828D01*
X009758Y000804D01*
X009769Y000779D01*
X009777Y000753D01*
X009781Y000726D01*
X009781Y000698D01*
X009777Y000671D01*
X009769Y000645D01*
X009758Y000620D01*
X009743Y000596D01*
X009726Y000575D01*
X009705Y000557D01*
X009683Y000541D01*
X009658Y000529D01*
X009632Y000521D01*
X009605Y000516D01*
X009577Y000515D01*
X009550Y000518D01*
X009523Y000525D01*
X009498Y000535D01*
X009474Y000549D01*
X009452Y000566D01*
X009433Y000585D01*
X009417Y000608D01*
X009404Y000632D01*
X009395Y000658D01*
X009389Y000685D01*
X009387Y000712D01*
D12*
X005240Y001101D03*
D13*
X005400Y000500D03*
X004983Y000500D03*
X004537Y000500D03*
X004123Y000500D03*
X003677Y000500D03*
X005847Y000500D03*
D14*
X005621Y001048D02*
X005621Y001156D01*
X005621Y001048D02*
X005415Y001048D01*
X005415Y001156D01*
X005621Y001156D01*
X005621Y001155D02*
X005415Y001155D01*
X006486Y001156D02*
X006486Y001048D01*
X006280Y001048D01*
X006280Y001156D01*
X006486Y001156D01*
X006486Y001155D02*
X006280Y001155D01*
X006486Y001422D02*
X006486Y001530D01*
X006486Y001422D02*
X006280Y001422D01*
X006280Y001530D01*
X006486Y001530D01*
X006486Y001529D02*
X006280Y001529D01*
X005621Y001530D02*
X005621Y001422D01*
X005415Y001422D01*
X005415Y001530D01*
X005621Y001530D01*
X005621Y001529D02*
X005415Y001529D01*
X005064Y001530D02*
X005064Y001422D01*
X004858Y001422D01*
X004858Y001530D01*
X005064Y001530D01*
X005064Y001529D02*
X004858Y001529D01*
X004160Y001530D02*
X004160Y001422D01*
X003954Y001422D01*
X003954Y001530D01*
X004160Y001530D01*
X004160Y001529D02*
X003954Y001529D01*
X004160Y001796D02*
X004160Y001904D01*
X004160Y001796D02*
X003954Y001796D01*
X003954Y001904D01*
X004160Y001904D01*
X004160Y001903D02*
X003954Y001903D01*
X005064Y001904D02*
X005064Y001796D01*
X004858Y001796D01*
X004858Y001904D01*
X005064Y001904D01*
X005064Y001903D02*
X004858Y001903D01*
X005621Y001904D02*
X005621Y001796D01*
X005415Y001796D01*
X005415Y001904D01*
X005621Y001904D01*
X005621Y001903D02*
X005415Y001903D01*
X006486Y001904D02*
X006486Y001796D01*
X006280Y001796D01*
X006280Y001904D01*
X006486Y001904D01*
X006486Y001903D02*
X006280Y001903D01*
D15*
X004165Y001161D02*
X004165Y001063D01*
X003949Y001063D01*
X003949Y001161D01*
X004165Y001161D01*
X004165Y001160D02*
X003949Y001160D01*
X005070Y001161D02*
X005070Y001043D01*
X004972Y001043D01*
X004972Y001161D01*
X005070Y001161D01*
X005070Y001140D02*
X004972Y001140D01*
M02*
