G75*
G70*
%OFA0B0*%
%FSLAX24Y24*%
%IPPOS*%
%LPD*%
%AMOC8*
5,1,8,0,0,1.08239X$1,22.5*
%
%ADD10C,0.0050*%
%ADD11C,0.0000*%
D10*
X000414Y000161D02*
X009936Y000161D01*
X009962Y000163D01*
X009988Y000168D01*
X010013Y000176D01*
X010036Y000188D01*
X010058Y000202D01*
X010077Y000220D01*
X010095Y000239D01*
X010109Y000261D01*
X010121Y000284D01*
X010129Y000309D01*
X010134Y000335D01*
X010136Y000361D01*
X010136Y001930D01*
X010134Y001956D01*
X010129Y001982D01*
X010121Y002007D01*
X010109Y002030D01*
X010095Y002052D01*
X010077Y002071D01*
X010058Y002089D01*
X010036Y002103D01*
X010013Y002115D01*
X009988Y002123D01*
X009962Y002128D01*
X009936Y002130D01*
X000414Y002130D01*
X000388Y002128D01*
X000362Y002123D01*
X000337Y002115D01*
X000314Y002103D01*
X000292Y002089D01*
X000273Y002071D01*
X000255Y002052D01*
X000241Y002030D01*
X000229Y002007D01*
X000221Y001982D01*
X000216Y001956D01*
X000214Y001930D01*
X000214Y000361D01*
X000216Y000335D01*
X000221Y000309D01*
X000229Y000284D01*
X000241Y000261D01*
X000255Y000239D01*
X000273Y000220D01*
X000292Y000202D01*
X000314Y000188D01*
X000337Y000176D01*
X000362Y000168D01*
X000388Y000163D01*
X000414Y000161D01*
D11*
X000569Y000712D02*
X000571Y000739D01*
X000577Y000766D01*
X000586Y000792D01*
X000599Y000816D01*
X000615Y000839D01*
X000634Y000858D01*
X000656Y000875D01*
X000680Y000889D01*
X000705Y000899D01*
X000732Y000906D01*
X000759Y000909D01*
X000787Y000908D01*
X000814Y000903D01*
X000840Y000895D01*
X000864Y000883D01*
X000887Y000867D01*
X000908Y000849D01*
X000925Y000828D01*
X000940Y000804D01*
X000951Y000779D01*
X000959Y000753D01*
X000963Y000726D01*
X000963Y000698D01*
X000959Y000671D01*
X000951Y000645D01*
X000940Y000620D01*
X000925Y000596D01*
X000908Y000575D01*
X000887Y000557D01*
X000865Y000541D01*
X000840Y000529D01*
X000814Y000521D01*
X000787Y000516D01*
X000759Y000515D01*
X000732Y000518D01*
X000705Y000525D01*
X000680Y000535D01*
X000656Y000549D01*
X000634Y000566D01*
X000615Y000585D01*
X000599Y000608D01*
X000586Y000632D01*
X000577Y000658D01*
X000571Y000685D01*
X000569Y000712D01*
X009387Y000712D02*
X009389Y000739D01*
X009395Y000766D01*
X009404Y000792D01*
X009417Y000816D01*
X009433Y000839D01*
X009452Y000858D01*
X009474Y000875D01*
X009498Y000889D01*
X009523Y000899D01*
X009550Y000906D01*
X009577Y000909D01*
X009605Y000908D01*
X009632Y000903D01*
X009658Y000895D01*
X009682Y000883D01*
X009705Y000867D01*
X009726Y000849D01*
X009743Y000828D01*
X009758Y000804D01*
X009769Y000779D01*
X009777Y000753D01*
X009781Y000726D01*
X009781Y000698D01*
X009777Y000671D01*
X009769Y000645D01*
X009758Y000620D01*
X009743Y000596D01*
X009726Y000575D01*
X009705Y000557D01*
X009683Y000541D01*
X009658Y000529D01*
X009632Y000521D01*
X009605Y000516D01*
X009577Y000515D01*
X009550Y000518D01*
X009523Y000525D01*
X009498Y000535D01*
X009474Y000549D01*
X009452Y000566D01*
X009433Y000585D01*
X009417Y000608D01*
X009404Y000632D01*
X009395Y000658D01*
X009389Y000685D01*
X009387Y000712D01*
M02*
